<svg width="27" height="27" viewBox="0 0 27 27" fill="none" xmlns="http://www.w3.org/2000/svg">
<path d="M4.5 12.375V21.375C4.5 21.9717 4.73705 22.544 5.15901 22.966C5.58097 23.3879 6.15326 23.625 6.75 23.625H20.25C20.8467 23.625 21.419 23.3879 21.841 22.966C22.2629 22.544 22.5 21.9717 22.5 21.375V12.375H4.5Z" stroke="#FF6565" stroke-width="2" stroke-linecap="round" stroke-linejoin="round"/>
<path d="M4.50008 12.3751L3.51008 9.1463C3.42329 8.86339 3.39316 8.56614 3.42141 8.27158C3.44967 7.97701 3.53575 7.6909 3.67474 7.42965C3.81373 7.1684 4.00288 6.93713 4.23138 6.74909C4.45987 6.56105 4.72321 6.41992 5.00633 6.3338L17.9213 2.3963C18.4912 2.22056 19.1076 2.27826 19.6349 2.55671C20.1623 2.83516 20.5575 3.31159 20.7338 3.8813L21.7126 7.11005L4.50008 12.3863V12.3751Z" stroke="#FF6565" stroke-width="2" stroke-linecap="round" stroke-linejoin="round"/>
<path d="M7.42505 5.61377L11.2275 10.3388" stroke="#FF6565" stroke-width="2" stroke-linecap="round" stroke-linejoin="round"/>
<path d="M13.3425 3.80273L17.145 8.52773" stroke="#FF6565" stroke-width="2" stroke-linecap="round" stroke-linejoin="round"/>
</svg>
