<svg width="24" height="24" viewBox="0 0 24 24" fill="none" xmlns="http://www.w3.org/2000/svg">
<path d="M18 20C18 18.4087 17.3679 16.8826 16.2426 15.7574C15.1174 14.6321 13.5913 14 12 14C10.4087 14 8.88258 14.6321 7.75736 15.7574C6.63214 16.8826 6 18.4087 6 20" stroke="#F8F9FA" stroke-width="2" stroke-linecap="round" stroke-linejoin="round"/>
<path d="M12.3999 14C14.609 14 16.3999 12.2091 16.3999 10C16.3999 7.79086 14.609 6 12.3999 6C10.1908 6 8.3999 7.79086 8.3999 10C8.3999 12.2091 10.1908 14 12.3999 14Z" stroke="#F8F9FA" stroke-width="2" stroke-linecap="round" stroke-linejoin="round"/>
<path d="M12.3999 22C17.9228 22 22.3999 17.5228 22.3999 12C22.3999 6.47715 17.9228 2 12.3999 2C6.87705 2 2.3999 6.47715 2.3999 12C2.3999 17.5228 6.87705 22 12.3999 22Z" stroke="#F8F9FA" stroke-width="2" stroke-linecap="round" stroke-linejoin="round"/>
</svg>
